# xmcd CD database file
# Copyright (C) 1995 Ti Kan
#
# Track frame offsets:
#	150
#	12907
#	22767
#	36300
#	53247
#	65615
#	80497
#	94322
#	104877
#	113310
#	122125
#	134847
#	144787
#	157820
#	165185
#	178450
#
# Disc length: 2501 seconds
#
# Revision: 1
# Processed by: cddbd v1.4b41PL1 Copyright (c) Steve Scherf et al.
# Submitted via: xmcd 1.4
#
DISCID=d309c310
DTITLE=Willie Nelson ? I Just Don't Understand
DYEAR=1900
DGENRE=
TTITLE0=I Just Don't Understand
TTITLE1=I Didn't Sleep A Wink
TTITLE2=If You Can't Undo The Wrong, Undo The Right
TTITLE3=I Let My Mind Wonder
TTITLE4=Shelter Of My Arms
TTITLE5=And So Will You My Love
TTITLE6=Home Is Where You're Happy
TTITLE7=I Feel Sorry For Him
TTITLE8=Slow Down Old World
TTITLE9=Why Are You Picking On Me
TTITLE10=Any Old Arms Will Do
TTITLE11=Broken Promises
TTITLE12=I Can't Find The Time
TTITLE13=Things To Remember
TTITLE14=You'll Always Have Someone
TTITLE15=One Step Beyond
EXTD=
EXTT0=
EXTT1=
EXTT2=
EXTT3=
EXTT4=
EXTT5=
EXTT6=
EXTT7=
EXTT8=
EXTT9=
EXTT10=
EXTT11=
EXTT12=
EXTT13=
EXTT14=
EXTT15=
PLAYORDER=
